<svg width="600" height="600" xmlns="http://www.w3.org/2000/svg">

 <g>
  <title>Layer 1</title>
  <g stroke="null">
   <path stroke="null" p-id="16009" fill="#123450" d="m300.99066,580.0377c-56.43712,0 -112.87425,0.13437 -169.31137,-0.02688c-70.4389,-0.215 -119.56607,-49.69154 -119.59295,-120.31857c-0.05375,-108.84302 -0.05375,-217.68604 0,-326.50219c0.02687,-70.6539 49.82592,-120.77544 120.61419,-120.93669c111.53051,-0.215 223.06101,-0.215 334.56464,0c73.34138,0.16124 122.57605,49.87966 122.60293,123.2748c0.05375,108.38615 0.18812,216.7723 -0.05375,325.15845c-0.13437,59.2321 -36.79162,105.02679 -92.79875,117.25484c-9.27181,2.01561 -18.678,1.90811 -28.05731,2.09624l-167.96762,0z"/>
   <path stroke="null" p-id="16010" fill="#EA5B5A" d="m31.40934,490.32955c-3.4131,-8.94931 -3.65497,-18.32863 -3.65497,-27.76169c0.02688,-110.56301 -0.10749,-221.15289 0.08063,-331.7159c0.08062,-60.4146 42.81158,-102.52744 103.46806,-102.52744c114.16423,0 228.30159,-0.02687 342.46582,0c56.43712,0 100.00121,43.80596 100.00121,100.51183c0,112.36362 -0.02687,224.72725 0.08063,337.09087c0,9.51369 -0.83313,18.70488 -5.05247,27.38544c-19.02737,38.59224 -52.4059,56.54462 -93.12125,57.109c-116.26047,1.55874 -232.57469,0.88687 -348.83516,0.3225c-28.78294,-0.13437 -53.83027,-11.71742 -75.65262,-30.39542c-9.54056,-8.19683 -13.94803,-19.538 -19.77987,-30.01918z"/>
   <path stroke="null" p-id="16011" fill="#B64544" d="m31.40934,490.32955c15.61428,23.05859 34.93727,41.60222 62.10771,50.36341c12.33554,3.97747 24.91296,6.39621 38.02787,6.36934c110.88551,-0.13438 221.77102,-0.34938 332.65653,0.08062c41.8441,0.16124 75.43762,-14.91553 100.13558,-48.9928c1.26311,-1.74686 2.92935,-3.25185 4.40747,-4.86434c-6.74558,33.21728 -41.27972,64.68769 -76.72761,69.87453c-10.61555,1.55874 -21.23111,2.31124 -32.00791,2.31124c-109.05802,-0.13438 -218.14291,0.10749 -327.20093,-0.16125c-38.29662,-0.1075 -69.31016,-15.07677 -90.38002,-47.99843c-5.26747,-8.27745 -9.48682,-17.11926 -11.01868,-26.98232z"/>
   <path stroke="null" p-id="16012" fill="#123450" d="m194.88887,408.3076c-45.57969,0.16125 -77.21136,-23.54234 -102.28556,-58.10336c-42.03222,-57.94211 -43.51033,-133.80973 -4.97184,-194.2512c6.79933,-10.64242 15.90989,-10.2393 25.69233,-8.92244c65.25206,8.81494 112.8205,42.00534 140.74343,102.33931c11.01868,23.78421 15.15741,49.26155 20.45175,74.68513c8.25057,39.66724 -28.70232,80.46321 -65.38644,83.17756c-4.94496,0.37625 -9.83618,0.7525 -14.24366,1.07499zm347.06143,-155.22896c-1.31686,55.52338 -25.18171,99.86683 -68.50392,133.56786c-27.43919,21.33861 -59.15147,26.4717 -92.77187,17.97926c-32.86791,-8.30432 -56.81337,-40.60786 -53.6959,-73.93263c4.89122,-52.11028 21.20423,-99.70558 59.71586,-137.22283c29.40105,-28.67544 65.65518,-42.32785 105.91366,-46.84281c10.64243,-1.1825 17.52238,2.25748 22.81672,11.93241c16.12489,29.50855 26.95545,60.3071 26.52545,94.51874z"/>
   <path stroke="null" p-id="16013" fill="#FFFFFF" d="m178.97898,320.74943c-26.49858,0.37625 -49.98717,-14.53927 -58.85586,-35.85101c-2.33811,-5.61684 -3.43998,-11.15305 0.59124,-16.44739c4.32685,-5.69746 9.99743,-6.26183 16.76988,-5.07935c21.28486,3.76248 39.10286,14.37803 56.11462,26.92857c5.56309,4.11184 10.69618,8.35806 9.19119,16.33988c-1.61249,8.49244 -8.27744,10.93806 -15.45302,12.57742c-3.49372,0.80625 -7.01432,1.28999 -8.35806,1.53186zm245.28648,0.7525c-4.94497,-0.08062 -9.70181,-0.1075 -14.53928,-1.74686c-6.87995,-2.33811 -11.98617,-6.20808 -13.16866,-13.46429c-1.07499,-6.53058 3.22498,-10.6693 8.08932,-14.29741c17.62988,-13.06116 35.93163,-24.75171 57.91524,-29.0248c7.52495,-1.47811 15.3724,-2.74123 20.63986,4.94496c4.78372,6.98746 1.66624,13.70616 -1.66624,20.10237c-11.98617,23.32734 -32.08853,32.84103 -57.27024,33.48603z"/>
  </g>
 </g>
</svg>